<svg xmlns="http://www.w3.org/2000/svg" viewBox="0 0 32 32" fill="none">
  <defs>
    <linearGradient id="bg" x1="0%" y1="0%" x2="100%" y2="100%">
      <stop offset="0%" stop-color="#FF6B35"/>
      <stop offset="100%" stop-color="#E8451A"/>
    </linearGradient>
  </defs>
  <rect width="32" height="32" rx="7" fill="url(#bg)"/>
  <path d="M9.5 15 C9.5 15 9.5 24 16 24 C22.5 24 22.5 15 22.5 15 L9.5 15 Z" fill="white"/>
  <rect x="8.5" y="14" width="15" height="1.8" rx="0.9" fill="white"/>
  <rect x="7" y="14.3" width="2" height="1.2" rx="0.6" fill="white"/>
  <rect x="23" y="14.3" width="2" height="1.2" rx="0.6" fill="white"/>
  <path d="M10.5 13.5 Q16 11 21.5 13.5" stroke="white" stroke-width="1.2" stroke-linecap="round" fill="none"/>
  <circle cx="16" cy="11.2" r="1" fill="white"/>
  <path d="M13.5 9.5 C13.5 8.8 14 8.3 14 7.7" stroke="white" stroke-width="0.8" stroke-linecap="round" opacity="0.7" fill="none"/>
  <path d="M16 9 C16 8.2 16.5 7.6 16.5 6.8" stroke="white" stroke-width="0.8" stroke-linecap="round" opacity="0.7" fill="none"/>
  <path d="M18.5 9.5 C18.5 8.8 18 8.3 18 7.7" stroke="white" stroke-width="0.8" stroke-linecap="round" opacity="0.7" fill="none"/>
</svg>
